<svg xmlns="http://www.w3.org/2000/svg" viewBox="0 0 512 512"><defs>
    <clipPath id="tl"><rect x="0" y="0" width="256" height="234.4"/></clipPath>
    <clipPath id="tr"><rect x="256" y="0" width="512" height="234.4"/></clipPath>
    <clipPath id="bl"><rect x="0" y="234.4" width="256" height="512"/></clipPath>
    <clipPath id="br"><rect x="256" y="234.4" width="512" height="512"/></clipPath></defs><rect width="512" height="512" rx="0" fill="#F3E8FF"/>
  <g clip-path="url(#tl)"><path transform="translate(121 94) scale(2.7)" d="M0 34C0 10 16 0 30 1C40 2 44 8 50 8C56 8 60 2 70 1C84 0 100 10 100 34C100 56 92 68 88 82C84 98 84 118 72 119C60 120 60 98 55 90C53 86 47 86 45 90C40 98 40 120 28 119C16 118 16 98 12 82C8 68 0 56 0 34Z" fill="#7C3AED"/></g><g clip-path="url(#tr)"><path transform="translate(121 94) scale(2.7)" d="M0 34C0 10 16 0 30 1C40 2 44 8 50 8C56 8 60 2 70 1C84 0 100 10 100 34C100 56 92 68 88 82C84 98 84 118 72 119C60 120 60 98 55 90C53 86 47 86 45 90C40 98 40 120 28 119C16 118 16 98 12 82C8 68 0 56 0 34Z" fill="#F5B83D"/></g><g clip-path="url(#bl)"><path transform="translate(121 94) scale(2.7)" d="M0 34C0 10 16 0 30 1C40 2 44 8 50 8C56 8 60 2 70 1C84 0 100 10 100 34C100 56 92 68 88 82C84 98 84 118 72 119C60 120 60 98 55 90C53 86 47 86 45 90C40 98 40 120 28 119C16 118 16 98 12 82C8 68 0 56 0 34Z" fill="#5B21B6"/></g><g clip-path="url(#br)"><path transform="translate(121 94) scale(2.7)" d="M0 34C0 10 16 0 30 1C40 2 44 8 50 8C56 8 60 2 70 1C84 0 100 10 100 34C100 56 92 68 88 82C84 98 84 118 72 119C60 120 60 98 55 90C53 86 47 86 45 90C40 98 40 120 28 119C16 118 16 98 12 82C8 68 0 56 0 34Z" fill="#4F0080"/></g>
  <g transform="translate(121 94) scale(2.7)">
    <line x1="-4" y1="52" x2="104" y2="52" stroke="#F3E8FF" stroke-width="5" stroke-linecap="round"/>
    <line x1="50" y1="-4" x2="50" y2="124" stroke="#F3E8FF" stroke-width="5" stroke-linecap="round"/>
  </g></svg>
